<?xml version="1.0" encoding="UTF-8"?>
<svg id="Layer_2" data-name="Layer 2" xmlns="http://www.w3.org/2000/svg" viewBox="0 0 757.14 999">
  <defs>
    <style>
      .cls-1 {
        fill: #073151;
      }

      .cls-2, .cls-3 {
        fill: #fff;
      }

      .cls-3 {
        stroke: #ed1c26;
        stroke-miterlimit: 10;
        stroke-width: 4px;
      }
    </style>
  </defs>
  <g id="Layer_1-2" data-name="Layer 1">
    <g>
      <path class="cls-1" d="M.05,331.67v-48.95M757.05,377.39c-1.7-15.48-11.82-31.77-9.91-48.48.07-.65.74-1.05,1.35-.85l.45.15c.67.22,1.36-.3,1.33-1-.17-3.05-1.1-5.82-1.04-9.05.11-6.56,3.17-16.95,2.83-22.72-.5-8.37-13.51-47.16-17.22-56.71-3.6-9.28-28.29-35.8-36.48-43.45-5.77-5.39-13.57-9.51-19.47-14.49-25.2-21.31-44.63-42.75-73.11-60.76-27.41-17.33-49.61-12.62-78.31-18.58-17.84-3.71-37.09-14.91-54.06-17.88-1-.17-8.77-.76-9.27-.7-3.26.4-3.05,3.47-3.65,3.95-.96.76-6.65-1.12-9.44-.95-3.54.22-10.19,2.3-12.93,2.04-2.3-.22-3.18-3.23-4.86-2.94-2.37.42-3.46,4.72-5.44,5.83-.08.05-.19-.02-.2-.11-1.15-8.91-14.24-5.47-21.46-5.8-2.96-.13-15.1-.06-15.89-.22-1.03-.21-1.98-2.12-4.16-2.71-4.76-1.28-20.75-4.57-24.95-4.13-5.76.61-3.22,5.86-5.45,7.59-1.1.85-12.45,2.61-14.49,2.56-2.89-.06-6.95-2.08-8.83-1.78-1.63.25-3.64,2.75-6.19,2.62-2.87-.16-5.06-3.54-10.49-2.52-5.55,1.04-17.73,12.47-20.79,17.25-5.03,7.82-6.67,22.84-10.39,32.57-1.21,3.17-4.96,8.28-5.52,10.47-1.09,4.28,1.43,15.46-2.28,17.73-1.05.64-2.62.18-3.67.8-5.72,3.36-12.11,7.03-17.31,12.15-1.27,1.26-8.85,10.15-8.79,10.85.18,1.99,3.6,4.82,2.83,7.67-2.22-1.2-5.89-11.55-7.45-11.77-.93-.13-3.37,1.99-5.82,1.61-2.53-.39-3.7-3.32-6.22-3.8-5.41-1.03-13.21.83-18.9-.08-4.11-.66-9.12-4.84-14.28-4.14-.05,0-.09-.02-.11-.06-4.23-10.13-13.45-17.99-15.96-28.53-.11-.45-.38-.83-.79-1.05-6.7-3.71-13.55-7.49-20.68-10.31-7.67-3.03-10.51.31-10.75-11.29-.07-3.22,2-9.79,1.76-11.06-.17-.91-5.19-2.55-3.44-7.84.44-1.33,2.27-1.22,3.06-2.85,1.13-2.34,2.33-6.08,3.24-8.67,5.38-15.14,13.53-23.73,24.96-34.98,1.83-1.79,5.16-8.12,7.94-8.05,1.7.04,2.53,2.47,5.75,1.87,4.74-.89,7.59-5.33,10.83-7.26,2.62-1.56,7.65-2.56,9.83-4.16,2.9-2.15,9.6-15,10.72-15.33,1.92-.56,3.86,1.73,5.88,1.89,9.44.75,9.29-10.22,11.68-17.23,1.46-4.29,4.93-7.51,3.77-12.71H.05l-.02,281.14v53.03s.02,149.85.02,149.85l-.02,13.06-.03,479.5c0,3.29.06,3.3.06,7.43v14.99s376.11,0,376.11,0c5.93,0,3.7-10.08,1.51-13.49-.46-.72-5.53-5.8-6.04-6.02-2.91-1.31-5.29,1.74-7.32,1.33-1.08-.22-2.64-2.55-4.61-3.32-8.44-3.29-12.88.22-18.42-.48-2.82-.36-7.85-4.57-11.17-4.98-4.01-.49-13.53,1.5-17.76,1.04-.67-.07-.53-1.92-1.28-2.08-1.85-.4-3.82.76-5.67.65-6.92-.38-14.11-4.02-18.87,2.65-.67.95-4.45,8.63-4.52,9.36-.26,2.84,2.74,3.68.29,6.33-3.85,4.17-15.66,5.44-25.06,5.44-3.96,0-7.5-.22-9.83-.55-7.87-1.11-13.3-2.96-15.43-11.1-.14-.55-.74-.87-1.26-.63-2.31,1.09-7.12,5.86-8.85,6.42-4.48,1.46-11.82-.96-10.16-6.24.05-.16.24-.23.39-.14,5.97,3.44,9.44,1.63,9.53,1.36,0-.1-.32-.09-.49-.18-3.05-1.63-9.19-7.51-13.19-9.41-4.07-1.92-8.42,2-12.36-1.37-1.81-1.55-3.27-10.36-5.7-12.53-1.01-.9-13.05-5.09-14.59-5.19-1.35-.09-10.23,1.63-11.33,2.2-2.4,1.24-2.23,5.17-5.28,6.71-1.59.8-4.84,1.98-5.25,1.74-2.02-2.56,1.4-1.66,3.05-2.91,2.34-1.77,3.79-8.51,8.43-9.7,2.14-.55,2.8,1.43,4.47,1.55,2.51.18,5.98-2.24,9.92-1.87,2.28.22,12.97,5.01,14.56,6.49,2.66,2.47,2.42,10.59,4.05,11.45,1,.53,5.6-1.35,8.41-.94,6.14.89,11.47,8.08,16.35,10.87.34.19.47.68.7.73.31.06.87-1.14,1.44-1.66.69-.63,7.69-1.39,8.36-1.26,3.91.71,4.25,9.27,6.89,11.45,3.84,3.15,24.32-.51,29.47-2.42,1.58-.59,5.51-1.74,6.22-3.03,2.39-4.43-.06-20.18,3.7-23.28.78-.64,4.74-2.2,5.66-2.04.95.17.92,2.18,1.6,2.64.63.42,12.14-1.52,14.03-2.03,1.99-.54,4.12-2.89,5.45-3.06,1.14-.15,7.44,1.41,7.5-1.96.03-1.66-10.77-1.23-7.96-7.48,1.85-.19,1.29,3.35,2.12,3.86,1.04.63,4.28-.26,6.18.31,2.42.72,3.11,6.03,10.57,6.33,2.47.1,3.15-1.87,4.83-2.29,4.12-1.02,8.01-.03,12.85-2.08,1.74-.73,2.32-3.12,4.78-3.18.34,0,.6-.31.55-.65-.23-1.62-1.21-3.67-2.61-4.14-2.25-.77-6.41.88-8.03-.79-.11-.11,0-.28.14-.24,5.13,1.35,9.76-4.61,13.13-5.13,4.36-.66,19.47,3.86,25,4.89,8.66,1.61,17.44.45,25.55,5.61.31.2.7.19.99-.03,6.81-5.24,14.3-10.25,21.31-15.45,6.01-4.46,12.17-9.74,18.54-14.43,2.14-1.57,4.62-2.14,6.96-4.03,4.02-3.26,17.23-18.23,16.91-23.02-.27-3.86-14.19,1.07-16.54,1.41-3.67.52-13.85-1.32-15.22,2.77-.64,1.9-.67,7.51-1.15,6.32-.51-1.42-.02-8.69-.02-8.69,0-.16-.12-.3-.28-.33l-28.72-4.08c-.25-.04-.5-.12-.71-.27-1.77-1.31-4.19-6.94-7.97-7.48-2.78-.39-6.6,4.3-9.93,2.57-.15-.08-.16-.3-.01-.39,2.16-1.4,8.48-4.41,10.05-4.08,2.6.53,8.21,7.96,10.33,8.58,2.62.76,16.15,2.02,19.73,2.24,8.61.52,21.06.28,28.47-4.59,5.82-3.83,3.25-6.54,4.16-11.82,1.13-6.56,4.59-16.8,3.64-22.85-.36-2.3-2.33-5.13-2.32-7.24.01-3.12,2.99-9.65,3.35-13.27.61-6.24-4.39-14.25-11.27-14.28-10.42-.05-9.93,7.32-15.84,12.73-2.93,2.68-10.43,6.22-14.35,6.07-2.42-.1-4.1-3.16-5.93-3.46-1.1-.18-9.36,2-9.86,2.71-.73,1.04-.2,3.05-1.48,4.52-1.11,1.26-5.83,2.6-8.07,3.35-.16.05-.31-.11-.25-.27l2.07-4.97c.11-.27-.07-.57-.36-.58-2.35-.04-5.17-1.83-7.07-1.8-1.48.02-2.43,1.56-3.87,1.77-2.32.33-7.32,0-7.41-1.02-.39-1.53,1.5-.77,2.01-1.65,1.42-2.43,1.33-6.27-1.53-7.32-1.81-.66-3.72,5.02-4.61,6.59-.14.25-.48.3-.67.09-1.04-1.12-1.56-2.64-2.71-3.68-1.79-1.64-4.78-2.76-6.24-4.66-.12-.16-.03-.41.17-.46,8.89-2.3,6.66,13.32,11.96-1.56.05-.15.24-.21.36-.11,1.56,1.26,4.83,4.36,6.76,4.35.17,0,2.89-.13,3.38-.74.37-.62-.19-2.37.16-2.73.61-.64,4.91.27,6.39-.03.69-.15-.58-4.15,5.29-3.86,2.44.12,2.79,3.73,3.75,3.77.41.01,1.84-2.78,4.02-3,2.08-.22,5.25,1.73,7.96,2.02,10.32,1.12,13.14-3.47,20.01-10.02.77-.74,2.03-.57,2.47-.99,2.38-2.78-6.48-2.74-7.84-2.95-.09-.01-.13-.11-.09-.19l.91-1.75s0-.08-.03-.09c-.65-.19-5.55-.25-2.96-2.51,3.75-3.26,8.26,3.15,11.5,3.15.95-.01,3.48-1.57,3.48-2.14,0-1.06-7.92-8.61-9.8-10.33-.06-.05-.01-.16.06-.16,3.25.02,5.04,3.61,7.75,4.56,1.03.37,2.52-.57,2.85-.35.41.27.4,2.14,1.77,2.64,8.33,3.01,22.28-2.66,29.27-7.44,3.57-2.44,11.35-7.18,5.07-10.9-1.6-.94-10.11-1.97-12.91-3.48-.04-.02-.07-.07-.08-.11-.19-1.58,2.52-1.05,3.44-.86,2.28.48,4,2.17,6.41,1.95.05,0,.08-.07.04-.11l-5.58-5.12c-.09-.08-.02-.24.1-.22l3.26.41c.17.02.33-.11.34-.28.12-3.58-3.85-7.29-.81-10.38.11-.11.31-.04.31.12.35,5.87,7.19,16.86,12.92,17.62,2.81.37,6.21-.33,9.17-.08.17.01.27.22.18.36-1.52,2.34-5.04,2.24-7.48,1.73-.14-.03-.25.11-.19.24,1.67,3.94,5.95,5.47,4.94,10.33-.03.14-.22.2-.32.1,0,0-1.13-1.71-1.74-1.75-.72-.05,2.63,9.13,4.65,9.82,2.11.72,18.36-.53,21.68-.96,13.61-1.76,14.13-6.02,24.69-12.28,6.65-3.94,11.96-5.33,18.37-10.6,5.66-4.66,22.78-23.65,25-29.94,2.59-7.36-.7-10.03-6.95-14.03-7.42-4.74-.32,4.78.25,6.75.26.9.58,6.57-.78,5.27-.98-2.07-.45-5.55-4.16-5.12-.45.05-.85-.29-.85-.74v-5.9c0-.14-.11-.27-.25-.27-1.47.05-8.06,3.38-10.39,1.84-.21-.14-.3-.39-.24-.63l.83-2.93c.04-.13.18-.21.31-.16l5.51,1.84c.12.04.24-.04.26-.16,1.69-10.91,7.61-20.42,14.12-29.1,2.24-3,3.92-2.29,2.9-8.14-.05-.3-.32-.54-.63-.55-2.53-.05-3.73,4.76-4.97,5.07-1.03.25-5.49-5.36-10.86-4.71-3.35.4-5.44,5.58-7.91,5.52-1.32-.03-3.35-1.58-5.27-1.73-3.23-.26-8.04.54-10.7-.28-1.52-.47-2.19-2.6-4.22-2.82-3.46-.38-8.98,3.79-12.02,3.98-3.54.22-20.55-2.2-24.86-3.02-1.72-.33-4.02-1.06-4.49-2.85-.14-.52.29-1.02.83-1.02,3.71,0,6.95-3.2,10.51-3.02,1.87.09,3.59,1.49,5.3,1.72,1.42.18,10.66,1.86,11.26,1.22.34-.36-.56-2.03.62-3.07.86-.77,10.45-4.92,11.86-4.96,6.09-.16,4.48,5,7.16,5.88,2.09.69,5.34-.11,7.78.2,1.74.22,3.16,1.69,4.24,1.8,1.36.14,5.32-4.49,8.98-4.59,2.73-.07,9.7,6.19,12.22,2.64.59-.83-3.64-17.04-4.85-18.43-2.94-3.4-14.37-3.69-18.32-5.66-2.13-1.07-2.48-3.99-4.78-5.21-1.97-1.06-4.6-.89-6.85-2.14-3.19-1.77-9.92-11.37-2.76-9.43,1.26.34,1.84,4.13,3.38,5.07,1.57.95,4.18.77,5.99,1.75,6.83,3.67,12.58,6.24,19.76,9.21,1.6.66,9.07,2.63,9.38,3.11.68,1.05-.1,7.84.23,10.26,1.62,12.08,16.06,10.45,13.89,24.06-.12.86,1.86.6,1.98.49,1.26-1.06,5.02-10.58,7.45-13.04,2.48-2.5,5.67-2.27,8.6-4.39,4.82-3.49,6.56-9.8,9.49-13.48,1.67-2.09,5.89-3.24,7.97-5.02,8.3-7.12,10.83-19.48,16.64-28.32,2.71-4.12,5.63-7.28,9.24-10.58.05-.04.13-.05.18-.01.82.67-.01,2.49,1.79,1.86,10.29-5.86,22.21-9.07,31.53-16.55.33-.27.57-.63.69-1.04,4.35-15.59,6.06-31.97,10.63-47.5,1.17-3.97,5.12-10.48,5.51-13.49.36-2.8-1.06-8.61-.79-12.76.74-10.96,1.9-23.02,3-33.96,1.66-16.44,10.21-17.45,16.17-27.78,3.86-6.67,5.86-18.94,9.03-26.94,3.71-9.36,10.46-18.99,11.65-29.31.91-7.95-1.27-12.66.78-21.2,2.36-9.85,10.09-18.01,9.07-27.38Z"/>
      <g>
        <path class="cls-2" d="M466.79,232.5h.14l13.63,14.23.07-.02v-13.58h2.09v18.72h-.14l-13.66-14.23-.05.02v13.58h-2.09v-18.72Z"/>
        <path class="cls-2" d="M485.31,245.44c0-3.43,2.62-5.86,6.22-5.86s6.02,2.33,6.02,5.81-2.62,6.07-6.17,6.07-6.07-2.38-6.07-6.02ZM495.47,245.46c0-2.4-1.63-4.03-3.98-4.03s-4.08,1.58-4.08,4.1,1.78,4.1,4.03,4.1,4.03-1.68,4.03-4.18Z"/>
        <path class="cls-2" d="M499.76,239.82h2.04v1.61h.07c.7-1.18,1.8-1.85,2.9-1.85.46,0,.94.12,1.34.34l-.43,1.97-.05.02c-.38-.29-.84-.43-1.39-.43-1.34,0-2.4,1.18-2.4,2.64v7.1h-2.09v-11.4Z"/>
        <path class="cls-2" d="M508.47,241.57h-1.3v-1.75h1.3v-4.8c0-2.42,1.22-3.96,3.31-3.96.6,0,1.18.14,1.56.31v1.73l-.02.02c-.26-.19-.82-.34-1.25-.34-1.01,0-1.54.65-1.54,2.14v4.9h2.78v1.75h-2.78v9.65h-2.06v-9.65Z"/>
        <path class="cls-2" d="M514.07,245.44c0-3.43,2.62-5.86,6.22-5.86s6.02,2.33,6.02,5.81-2.62,6.07-6.17,6.07-6.07-2.38-6.07-6.02ZM524.22,245.46c0-2.4-1.63-4.03-3.98-4.03s-4.08,1.58-4.08,4.1,1.78,4.1,4.03,4.1,4.03-1.68,4.03-4.18Z"/>
        <path class="cls-2" d="M530.72,231.3v19.92h-2.09v-19.92h2.09Z"/>
        <path class="cls-2" d="M535.98,231.3v13.15h.05l4.44-4.63h2.52l-4.94,5.09,5.88,6.31h-2.64l-4.68-4.99-.62.6v4.39h-2.09v-19.92h2.09Z"/>
      </g>
      <g>
        <path class="cls-2" d="M481.74,525.11c-1.97,0-2.98,1.39-2.98,2.86,0,1.7,1.18,2.38,3.84,3.36,2.06.72,4.68,1.9,4.68,4.87,0,3.74-2.93,5.71-5.81,5.71-2.52,0-4.54-1.18-5.62-3.14l1.66-1.34c1.01,1.68,2.28,2.45,3.98,2.45s3.46-1.25,3.46-3.38c0-2.02-1.66-2.74-3.89-3.5-2.62-.89-4.63-2.04-4.63-4.92,0-2.42,1.8-4.87,5.28-4.87,1.66,0,3.58.67,4.75,2.5l-1.44,1.32c-.98-1.32-1.99-1.9-3.29-1.9Z"/>
        <path class="cls-2" d="M491.75,530.2v7.01c0,1.82,1.01,2.81,2.64,2.81s2.66-1.03,2.66-2.93v-6.89h2.09v7.13c0,2.74-1.97,4.51-4.85,4.51s-4.63-1.61-4.63-4.37v-7.27h2.09Z"/>
        <path class="cls-2" d="M502.45,531.95h-1.3v-1.75h1.3v-3.94c0-2.95,1.85-4.82,4.73-4.82,1.34,0,2.59.58,3.34,1.46.55-.94,1.44-1.46,2.57-1.46.5,0,1.13.12,1.56.31v1.73l-.02.02c-.31-.19-.86-.34-1.25-.34-1.03,0-1.54.7-1.54,2.14v4.9h2.78v1.75h-2.78v9.65h-2.06v-9.65h-5.26v9.65h-2.06v-9.65ZM509.77,530.2v-4.49c0-1.54-1.03-2.54-2.57-2.54-1.7,0-2.69,1.08-2.69,2.98v4.06h5.26Z"/>
        <path class="cls-2" d="M515.36,535.81c0-3.43,2.62-5.86,6.22-5.86s6.02,2.33,6.02,5.81-2.62,6.07-6.17,6.07-6.07-2.38-6.07-6.02ZM525.51,535.83c0-2.4-1.63-4.03-3.98-4.03s-4.08,1.58-4.08,4.1,1.78,4.1,4.03,4.1,4.03-1.68,4.03-4.18Z"/>
        <path class="cls-2" d="M532.02,521.67v19.92h-2.09v-19.92h2.09Z"/>
        <path class="cls-2" d="M537.27,521.67v13.15h.05l4.44-4.63h2.52l-4.94,5.09,5.88,6.31h-2.64l-4.68-4.99-.62.6v4.39h-2.09v-19.92h2.09Z"/>
      </g>
      <g>
        <path class="cls-2" d="M89.22,384.82c0-5.42,4.08-9.6,9.43-9.6,2.16,0,3.89.6,5.71,1.92v2.57h-.02c-1.63-1.63-3.5-2.42-5.62-2.42-4.1,0-7.22,3.19-7.22,7.44,0,4.01,3.19,7.13,7.15,7.13,2.11,0,4.18-.91,5.71-2.47h.02v2.59c-1.73,1.3-3.74,1.97-5.81,1.97-5.33,0-9.36-3.98-9.36-9.12Z"/>
        <path class="cls-2" d="M106.05,387.97c0-3.53,2.4-5.98,5.62-5.98,1.73,0,3.36.77,4.13,2.04h.05v-1.8h2.06v11.4h-2.06v-1.75h-.05c-.82,1.22-2.42,1.99-4.22,1.99-3.29,0-5.52-2.47-5.52-5.9ZM116.01,387.87c0-2.52-1.73-4.08-3.94-4.08s-3.89,1.63-3.89,4.1,1.56,4.18,3.79,4.18c2.38,0,4.03-1.8,4.03-4.2Z"/>
        <path class="cls-2" d="M120.83,382.23h2.09v1.54h.05c.46-.94,1.51-1.78,3.05-1.78s2.64.84,3.17,1.94c.77-1.32,2.02-1.94,3.46-1.94,2.33,0,3.65,1.58,3.65,3.86v7.78h-2.06v-7.2c0-1.87-.84-2.66-2.26-2.66-1.61,0-2.4.96-2.4,2.54v7.32h-2.09v-7.2c0-1.61-.58-2.66-2.14-2.66s-2.42,1.22-2.42,2.88v6.98h-2.09v-11.4Z"/>
        <path class="cls-2" d="M139.24,393.63v-19.92h2.09v10.32h.02c.89-1.25,2.42-2.04,4.27-2.04,3.19,0,5.38,2.3,5.38,5.88s-2.33,5.98-5.47,5.98c-1.73,0-3.38-.77-4.18-2.02h-.02v1.8h-2.09ZM145.12,392.07c2.18,0,3.77-1.68,3.77-4.13s-1.42-4.15-3.72-4.15-3.98,1.73-3.98,4.18c0,2.3,1.7,4.1,3.94,4.1Z"/>
        <path class="cls-2" d="M153.18,382.23h2.04v1.61h.07c.7-1.18,1.8-1.85,2.9-1.85.46,0,.94.12,1.34.34l-.43,1.97-.05.02c-.38-.29-.84-.43-1.39-.43-1.34,0-2.4,1.18-2.4,2.64v7.1h-2.09v-11.4Z"/>
        <path class="cls-2" d="M161.15,378.1c0-.82.55-1.34,1.34-1.34s1.34.53,1.34,1.34-.53,1.34-1.34,1.34-1.34-.53-1.34-1.34ZM163.55,382.23v11.43h-2.09v-11.43h2.09Z"/>
        <path class="cls-2" d="M166.02,387.94c0-3.48,2.4-5.95,5.62-5.95,1.82,0,3.36.74,4.22,2.09h.02v-10.37h2.09v19.92h-2.09v-1.73h-.02c-.86,1.25-2.47,1.97-4.22,1.97-3.41,0-5.62-2.38-5.62-5.93ZM176.03,387.87c0-2.35-1.68-4.08-3.98-4.08s-3.89,1.73-3.89,4.13,1.51,4.15,3.84,4.15,4.03-1.63,4.03-4.2Z"/>
        <path class="cls-2" d="M180.54,395.55h2.18c.31,1.73,1.54,2.78,3.48,2.78,2.38,0,3.84-1.51,3.84-4.18v-2.3h-.05c-.86,1.25-2.47,1.94-4.22,1.94-3.31,0-5.5-2.42-5.5-5.83s2.35-5.98,5.62-5.98c1.82,0,3.34.74,4.1,1.99h.05v-1.75h2.06v12c0,3.55-2.38,5.88-6.02,5.88-3.22,0-5.23-1.85-5.54-4.56ZM190.19,387.92c0-2.42-1.61-4.1-3.91-4.1s-3.86,1.68-3.86,4.13,1.49,4.15,3.79,4.15,3.98-1.75,3.98-4.18Z"/>
        <path class="cls-2" d="M200.17,393.87c-3.53,0-5.79-2.38-5.79-5.88s2.4-6,5.74-6,5.52,2.47,5.52,6.41h-9.17c.17,2.3,1.68,3.72,3.72,3.72,1.56,0,2.64-.77,3.58-2.21l1.56.98c-1.01,1.85-2.9,2.98-5.16,2.98ZM203.46,386.74c-.24-1.87-1.56-3.07-3.36-3.07-1.92,0-3.19,1.13-3.55,3.07h6.91Z"/>
        <path class="cls-2" d="M206.41,391.35l1.37-1.13c.58,1.1,1.49,1.92,2.9,1.92,1.22,0,2.11-.72,2.11-1.87,0-.98-.55-1.44-2.18-1.87-2.28-.62-3.12-1.66-3.12-3.24,0-1.8,1.49-3.17,3.6-3.17,1.42,0,2.62.62,3.29,1.54l-.98,1.3c-.67-.82-1.42-1.18-2.26-1.18s-1.61.43-1.61,1.3c0,.94.53,1.3,2.09,1.8,2.21.67,3.17,1.58,3.17,3.31,0,2.23-1.68,3.82-4.08,3.82-2.23,0-3.72-1.22-4.3-2.52Z"/>
        <path class="cls-2" d="M217.12,373.71h2.09v10.15h.05c.82-1.22,1.99-1.87,3.5-1.87,2.33,0,3.86,1.42,3.86,3.79v7.85h-2.06v-7.2c0-1.75-.86-2.66-2.45-2.66-1.68,0-2.9,1.32-2.9,3v6.86h-2.09v-19.92Z"/>
        <path class="cls-2" d="M229.43,378.1c0-.82.55-1.34,1.34-1.34s1.34.53,1.34,1.34-.53,1.34-1.34,1.34-1.34-.53-1.34-1.34ZM231.83,382.23v11.43h-2.09v-11.43h2.09Z"/>
        <path class="cls-2" d="M235.04,382.23h2.04v1.61h.07c.7-1.18,1.8-1.85,2.9-1.85.46,0,.94.12,1.34.34l-.43,1.97-.05.02c-.38-.29-.84-.43-1.39-.43-1.34,0-2.4,1.18-2.4,2.64v7.1h-2.09v-11.4Z"/>
        <path class="cls-2" d="M247.6,393.87c-3.53,0-5.79-2.38-5.79-5.88s2.4-6,5.74-6,5.52,2.47,5.52,6.41h-9.17c.17,2.3,1.68,3.72,3.72,3.72,1.56,0,2.64-.77,3.58-2.21l1.56.98c-1.01,1.85-2.9,2.98-5.16,2.98ZM250.88,386.74c-.24-1.87-1.56-3.07-3.36-3.07-1.92,0-3.19,1.13-3.55,3.07h6.91Z"/>
      </g>
      <path class="cls-3" d="M523.33,481.29c0,7.07-12.79,26.63-12.79,26.63,0,0-12.79-19.56-12.79-26.63s5.73-12.79,12.79-12.79,12.79,5.73,12.79,12.79Z"/>
      <path class="cls-3" d="M183.94,333.35c0,7.07-12.79,26.63-12.79,26.63,0,0-12.79-19.56-12.79-26.63s5.73-12.79,12.79-12.79,12.79,5.73,12.79,12.79Z"/>
      <path class="cls-3" d="M518.15,192.84c0,7.07-12.79,26.63-12.79,26.63,0,0-12.79-19.56-12.79-26.63s5.73-12.79,12.79-12.79,12.79,5.73,12.79,12.79Z"/>
    </g>
  </g>
</svg>