<?xml version="1.0" encoding="UTF-8"?>
<svg id="Layer_2" data-name="Layer 2" xmlns="http://www.w3.org/2000/svg" viewBox="0 0 120 119.99">
  <defs>
    <style>
      .cls-1, .cls-2 {
        stroke-linecap: round;
      }

      .cls-1, .cls-2, .cls-3, .cls-4 {
        fill: none;
        stroke: #3b53a4;
      }

      .cls-1, .cls-2, .cls-4 {
        stroke-width: 5px;
      }

      .cls-1, .cls-3, .cls-4 {
        stroke-miterlimit: 10;
      }

      .cls-2 {
        stroke-linejoin: round;
      }

      .cls-3 {
        stroke-width: 10px;
      }
    </style>
  </defs>
  <g id="Layer_1-2" data-name="Layer 1">
    <line class="cls-2" x1="2.5" y1="117.49" x2="117.5" y2="117.49"/>
    <polyline class="cls-4" points="66.5 32.49 66.5 117.49 22.5 117.49 22.5 106.49"/>
    <line class="cls-4" x1="22.5" y1="90.49" x2="22.5" y2="32.49"/>
    <line class="cls-1" x1="71" y1="32.49" x2="18" y2="32.49"/>
    <line class="cls-1" x1="110" y1="47.49" x2="84.5" y2="47.49"/>
    <polyline class="cls-4" points="73.5 117.49 81.5 117.49 105.5 117.49 105.5 47.99"/>
    <line class="cls-4" x1="84.5" y1="116.99" x2="84.5" y2="108.49"/>
    <polyline class="cls-1" points="84.5 94.49 84.5 47.42 84.5 2.5"/>
    <line class="cls-1" x1="47" y1="2.5" x2="89" y2="2.5"/>
    <line class="cls-1" x1="51.5" y1="32.49" x2="51.5" y2="2.5"/>
    <line class="cls-4" x1="32.5" y1="39.99" x2="32.5" y2="49.99"/>
    <line class="cls-4" x1="56.5" y1="39.99" x2="56.5" y2="49.99"/>
    <line class="cls-4" x1="44.5" y1="39.99" x2="44.5" y2="49.99"/>
    <line class="cls-4" x1="75.5" y1="10.99" x2="75.5" y2="20.99"/>
    <line class="cls-4" x1="61.5" y1="10.99" x2="61.5" y2="20.99"/>
    <line class="cls-4" x1="75.5" y1="24.99" x2="75.5" y2="34.99"/>
    <line class="cls-4" x1="75.5" y1="39.99" x2="75.5" y2="49.99"/>
    <line class="cls-4" x1="75.5" y1="54.99" x2="75.5" y2="64.99"/>
    <line class="cls-4" x1="75.5" y1="69.99" x2="75.5" y2="79.99"/>
    <line class="cls-4" x1="75.5" y1="84.99" x2="75.5" y2="94.99"/>
    <line class="cls-4" x1="75.5" y1="97.99" x2="75.5" y2="107.99"/>
    <line class="cls-4" x1="94.5" y1="97.99" x2="94.5" y2="107.99"/>
    <line class="cls-4" x1="94.5" y1="84.99" x2="94.5" y2="94.99"/>
    <line class="cls-4" x1="94.5" y1="69.99" x2="94.5" y2="79.99"/>
    <line class="cls-4" x1="94.5" y1="54.99" x2="94.5" y2="64.99"/>
    <line class="cls-4" x1="61.5" y1="24.99" x2="61.5" y2="34.99"/>
    <line class="cls-4" x1="32.5" y1="54.99" x2="32.5" y2="64.99"/>
    <line class="cls-4" x1="44.5" y1="54.99" x2="44.5" y2="64.99"/>
    <line class="cls-4" x1="56.5" y1="54.99" x2="56.5" y2="64.99"/>
    <line class="cls-4" x1="32.5" y1="69.99" x2="32.5" y2="79.99"/>
    <line class="cls-4" x1="56.5" y1="69.99" x2="56.5" y2="79.99"/>
    <line class="cls-4" x1="44.5" y1="69.99" x2="44.5" y2="79.99"/>
    <line class="cls-4" x1="32.5" y1="84.99" x2="32.5" y2="94.99"/>
    <line class="cls-4" x1="44.5" y1="84.99" x2="44.5" y2="94.99"/>
    <line class="cls-4" x1="56.5" y1="84.99" x2="56.5" y2="94.99"/>
    <line class="cls-4" x1="32.5" y1="97.99" x2="32.5" y2="107.99"/>
    <line class="cls-3" x1="44.5" y1="97.99" x2="44.5" y2="115.49"/>
    <line class="cls-4" x1="56.5" y1="97.99" x2="56.5" y2="107.99"/>
    <line class="cls-4" x1="11.5" y1="99.99" x2="11.5" y2="117.99"/>
    <path class="cls-4" d="M20.1,90.86c-1.11-3.69-4.54-6.37-8.6-6.37-4.97,0-9,4.03-9,9s4.03,9,9,9c1.31,0,2.55-.28,3.67-.79"/>
    <circle class="cls-4" cx="22.5" cy="98.49" r="8"/>
    <circle class="cls-4" cx="84.5" cy="101.49" r="7"/>
  </g>
</svg>