<?xml version="1.0" encoding="UTF-8"?>
<svg id="Layer_2" data-name="Layer 2" xmlns="http://www.w3.org/2000/svg" viewBox="0 0 100 35.54">
  <defs>
    <style>
      .cls-1 {
        fill: #e5101b;
      }

      .cls-2 {
        fill: #3b53a4;
      }
    </style>
  </defs>
  <g id="Layer_1-2" data-name="Layer 1">
    <g>
      <g>
        <path class="cls-1" d="M30.87,18.57c-.33,5.47-4.03,10.06-9.05,11.68v4.82c7.6-1.78,13.34-8.45,13.7-16.5h-4.65Z"/>
        <path class="cls-2" d="M35.51,16.84h-4.65c-.48-6.81-6.17-12.2-13.09-12.2s-13.13,5.89-13.13,13.13c0,6.45,4.67,11.82,10.8,12.92v-14.01h-3.49l2.32-4.64h5.81v23.35c-.76.1-1.54.15-2.32.15C7.97,35.54,0,27.57,0,17.77S7.97,0,17.77,0s17.26,7.47,17.74,16.84Z"/>
        <g>
          <path class="cls-2" d="M21.79,14.13c-.59-.3-.89-.66-.89-1.13,0-.58.49-1.07,1.2-1.07.48,0,.92.22,1.22.61l-.57.58c-.21-.21-.42-.34-.64-.34-.19,0-.33.08-.33.22s.13.2.33.31l.34.17c.61.31.94.63.94,1.18,0,.66-.52,1.16-1.33,1.16-.54,0-.98-.22-1.3-.63l.57-.63c.22.25.53.43.77.43.23,0,.41-.13.41-.3s-.15-.28-.41-.41l-.31-.16Z"/>
          <path class="cls-2" d="M24.23,10.67h.93v1.37h.47v.79h-.47v2.9h-.93v-2.9h-.47v-.79h.47v-1.37Z"/>
        </g>
      </g>
      <g>
        <path class="cls-2" d="M37.25,12.02h2.01c.83,0,1.45.6,1.45,1.41s-.42,1.23-.99,1.42l1.48,1.94h-1.56l-1.16-1.79v1.79h-1.23v-4.77ZM38.68,14.17c.52,0,.75-.2.75-.65,0-.34-.22-.52-.61-.52h-.33v1.16h.19Z"/>
        <path class="cls-2" d="M41.59,12.02h2.69v1.05h-1.45v.77h1.33v1.01h-1.33v.89h1.45v1.05h-2.69v-4.77Z"/>
        <path class="cls-2" d="M46.56,13c-.29,0-.46.15-.46.36,0,.23.1.3.78.49.8.22,1.23.59,1.23,1.3,0,1.03-.7,1.72-1.76,1.72-.54,0-1.21-.2-1.67-.51l.58-1.04c.35.27.71.4,1.05.4s.49-.16.49-.4c0-.26-.19-.37-.74-.51-.86-.22-1.27-.6-1.27-1.32,0-.93.66-1.55,1.69-1.55.47,0,1.02.18,1.39.45l-.49.97c-.23-.22-.54-.36-.82-.36Z"/>
        <path class="cls-2" d="M48.72,12.02h2.04c.97,0,1.59.61,1.59,1.52,0,1.04-.55,1.64-1.54,1.64h-.85v1.6h-1.23v-4.77ZM50.47,14.18c.34,0,.58-.2.58-.58s-.23-.58-.58-.58h-.52v1.16h.52Z"/>
        <path class="cls-2" d="M52.7,14.43c0-1.48,1.14-2.49,2.61-2.49s2.57.94,2.57,2.45-1.13,2.48-2.57,2.48c-1.56,0-2.61-1.02-2.61-2.44ZM56.57,14.43c0-.83-.56-1.32-1.27-1.32-.8,0-1.29.61-1.29,1.33s.49,1.28,1.29,1.28c.74,0,1.27-.63,1.27-1.3Z"/>
        <path class="cls-2" d="M58.45,12.02h1.27l2.09,2.85h.01v-2.85h1.21v4.77h-1.22l-2.13-2.92h-.01v2.92h-1.21v-4.77Z"/>
        <path class="cls-2" d="M65.44,13c-.29,0-.46.15-.46.36,0,.23.1.3.78.49.8.22,1.23.59,1.23,1.3,0,1.03-.7,1.72-1.76,1.72-.54,0-1.21-.2-1.67-.51l.58-1.04c.35.27.71.4,1.05.4s.49-.16.49-.4c0-.26-.19-.37-.74-.51-.86-.22-1.27-.6-1.27-1.32,0-.93.66-1.55,1.69-1.55.47,0,1.02.18,1.39.45l-.49.97c-.23-.22-.54-.36-.82-.36Z"/>
        <path class="cls-2" d="M67.6,12.02h2.69v1.05h-1.45v.77h1.33v1.01h-1.33v.89h1.45v1.05h-2.69v-4.77Z"/>
      </g>
      <g>
        <path class="cls-1" d="M40.75,18.58c2.31,0,4.18,1.9,4.18,4.27,0,2.5-1.97,4.48-4.36,4.48h-3.31v-8.75h3.49ZM40.33,25.4c1.27,0,2.19-.98,2.19-2.52s-.91-2.38-2.33-2.38h-.67v4.9h.81Z"/>
        <path class="cls-1" d="M45.97,18.58h3.69c1.53,0,2.67,1.1,2.67,2.59s-.77,2.25-1.82,2.61l2.72,3.55h-2.87l-2.12-3.29v3.29h-2.26v-8.75ZM48.58,22.52c.95,0,1.38-.37,1.38-1.18,0-.62-.41-.95-1.13-.95h-.6v2.14h.35Z"/>
        <path class="cls-1" d="M57.16,18.58h2.34l3.23,8.75h-2.36l-.56-1.6h-3.19l-.58,1.6h-2.31l3.42-8.75ZM59.21,24l-.94-2.7h-.02l-.99,2.7h1.95Z"/>
        <path class="cls-1" d="M65.69,18.58v8.75h-2.26v-8.75h2.26Z"/>
        <path class="cls-1" d="M67.08,18.58h2.32l3.83,5.22h.02v-5.22h2.23v8.75h-2.24l-3.91-5.35h-.02v5.35h-2.23v-8.75Z"/>
        <path class="cls-1" d="M79.61,18.58h2.34l3.23,8.75h-2.36l-.56-1.6h-3.19l-.58,1.6h-2.31l3.42-8.75ZM81.66,24l-.94-2.7h-.02l-.99,2.7h1.95Z"/>
        <path class="cls-1" d="M85,23.07c0-2.7,1.93-4.64,4.62-4.64,1.73,0,3.11.8,3.93,2.28l-2,.95c-.38-.78-1.07-1.22-1.9-1.22-1.36,0-2.25,1.04-2.25,2.64,0,1.49.93,2.5,2.28,2.5,1,0,1.73-.52,1.88-1.36h-1.96v-1.79h4.4c.22,2.99-1.6,5.06-4.46,5.06-2.62,0-4.54-1.86-4.54-4.41Z"/>
        <path class="cls-1" d="M95.07,18.58h4.93v1.93h-2.67v1.42h2.45v1.86h-2.45v1.63h2.67v1.93h-4.93v-8.75Z"/>
      </g>
    </g>
  </g>
</svg>