<?xml version="1.0" encoding="UTF-8"?>
<svg id="Layer_2" data-name="Layer 2" xmlns="http://www.w3.org/2000/svg" viewBox="0 0 120 119.99">
  <defs>
    <style>
      .cls-1 {
        fill: none;
        stroke: #3b53a4;
        stroke-linecap: round;
        stroke-linejoin: round;
        stroke-width: 5px;
      }

      .cls-2 {
        fill: #3b53a4;
      }
    </style>
  </defs>
  <g id="Layer_1-2" data-name="Layer 1">
    <line class="cls-1" x1="94.5" y1="110.49" x2="25.5" y2="110.49"/>
    <line class="cls-1" x1="22.5" y1="64.49" x2="37.5" y2="64.49"/>
    <line class="cls-1" x1="82.5" y1="64.49" x2="96.5" y2="64.49"/>
    <rect class="cls-1" x="2.5" y="57.49" width="20" height="60"/>
    <rect class="cls-1" x="97.5" y="57.49" width="20" height="60"/>
    <path class="cls-2" d="M52,2.47c-.01.45,0,71.95,0,72.33,0,.97-.67,1.78-1.57,1.99l-10.59,2.53c-1.02.24-1.59-1.18-.68-1.7,0,0,9.41-5.47,9.41-5.47l-1.57,2.32s0-72,0-72c.07-3.26,4.91-3.33,5,0h0Z"/>
    <path class="cls-2" d="M73,2.47v73.02s-1.57-2.32-1.57-2.32l9.42,5.46c.93.51.34,2-.69,1.73,0,0-10.58-2.54-10.58-2.54-.94-.23-1.57-1.07-1.57-1.99,0,0,0-.33,0-.33V2.47c.07-3.26,4.91-3.33,5,0h0Z"/>
    <path class="cls-2" d="M52,64.49v20.67c0,.97-.62,1.8-1.49,2.11l-16.33,5.83c-1.42.49-2.31-1.52-.99-2.24,0,0,15.29-8.17,15.29-8.17l-1.49,2.29v-20.5c.08-3.29,4.92-3.31,5,0h0Z"/>
    <path class="cls-2" d="M73,65.49v20.5l-1.49-2.29,15.28,8.2c.58.31.8,1.03.49,1.61-.28.52-.9.75-1.45.56l-16.34-5.8c-.91-.32-1.49-1.18-1.49-2.1-.05-.3.04-20.41,0-20.68.08-3.29,4.91-3.3,5,0h0Z"/>
    <path class="cls-2" d="M62.5,53.99v36.5l-1.49-2.29,15.06,8.69c.66.37.2,1.44-.53,1.19,0,0-16.56-5.31-16.56-5.31-1.01-.32-1.57-1.29-1.49-2.29,0,0,0-36.5,0-36.5.08-3.28,4.91-3.31,5,0h0Z"/>
    <path class="cls-2" d="M61.48,92.79c-1.08.62-2.87,1.04-4.05,1.45-4,1.26-8.37,2.68-12.37,3.86-1.08.33-1.74-1.23-.75-1.77,3.62-2.05,7.69-4.23,11.36-6.23,1.12-.57,2.66-1.56,3.86-1.91,2.87-.81,4.51,3.12,1.96,4.6h0Z"/>
  </g>
</svg>