<?xml version="1.0" encoding="UTF-8"?>
<svg id="Layer_2" data-name="Layer 2" xmlns="http://www.w3.org/2000/svg" viewBox="0 0 120 120">
  <defs>
    <style>
      .cls-1 {
        fill: none;
        stroke: #3b53a4;
        stroke-miterlimit: 10;
        stroke-width: 5px;
      }

      .cls-2 {
        fill: #3b53a4;
      }
    </style>
  </defs>
  <g id="Layer_1-2" data-name="Layer 1">
    <path class="cls-1" d="M65.78,66.52h0c0,3.17-2.61,5.78-5.77,5.78"/>
    <path class="cls-1" d="M72.7,67.3c0,7.02-5.69,12.7-12.7,12.7s-12.71-5.69-12.71-12.7,13.09-25.8,13.09-25.8c0,0,12.32,18.78,12.32,25.8Z"/>
    <path class="cls-2" d="M60,6.84c8.48,7.57,30.9,25.55,54.87,27.91-1.21,21.57-10.67,41.4-28.19,59-10.95,11.01-22.06,17.91-26.68,20.56-4.63-2.65-15.73-9.55-26.68-20.56C15.8,76.14,6.34,56.32,5.13,34.74c23.97-2.35,46.39-20.33,54.87-27.91M60,0S30,30,0,30c0,60,60,90,60,90,0,0,60-30,60-90C90,30,60,0,60,0h0Z"/>
  </g>
</svg>